<?xml version="1.0" encoding="UTF-8" standalone="no"?>
<svg width="127px" height="32px" viewBox="0 0 127 32" version="1.1" xmlns="http://www.w3.org/2000/svg" xmlns:xlink="http://www.w3.org/1999/xlink">
    <!-- Generator: Sketch 48.2 (47327) - http://www.bohemiancoding.com/sketch -->
    <title>Group 2</title>
    <desc>Created with Sketch.</desc>
    <defs></defs>
    <g id="Free-Resources---Article" stroke="none" stroke-width="1" fill="none" fill-rule="evenodd" transform="translate(-567.000000, -2091.000000)">
        <g id="Group-2" transform="translate(567.000000, 2091.000000)" fill="#000000">
            <polygon id="Star" points="17.5 26.25 7.21375808 31.6577974 9.17825548 20.2038987 0.856510965 12.0922026 12.356879 10.4211013 17.5 0 22.643121 10.4211013 34.143489 12.0922026 25.8217445 20.2038987 27.7862419 31.6577974"></polygon>
            <polygon id="Star" points="63.5 26.25 53.2137581 31.6577974 55.1782555 20.2038987 46.856511 12.0922026 58.356879 10.4211013 63.5 0 68.643121 10.4211013 80.143489 12.0922026 71.8217445 20.2038987 73.7862419 31.6577974"></polygon>
            <polygon id="Star" points="109.5 26.25 99.2137581 31.6577974 101.178255 20.2038987 92.856511 12.0922026 104.356879 10.4211013 109.5 0 114.643121 10.4211013 126.143489 12.0922026 117.821745 20.2038987 119.786242 31.6577974"></polygon>
        </g>
    </g>
</svg>