<?xml version="1.0" encoding="UTF-8" standalone="no"?>
<svg width="100%" height="auto" viewBox="0 0 1266 224" version="1.1" xmlns="http://www.w3.org/2000/svg" xmlns:xlink="http://www.w3.org/1999/xlink">
    <!-- Generator: Sketch 48.2 (47327) - http://www.bohemiancoding.com/sketch -->
    <title>EMAIL NEWSLETTER</title>
    <desc>Created with Sketch.</desc>
    <defs></defs>
    <g id="Page-1" stroke="none" stroke-width="1" fill="none" fill-rule="evenodd">
        <path d="M0,214.129151 C4.70835687,212.859772 7.76040969,210.717727 9.15625,207.702952 C10.5520903,204.688177 11.25,197.045572 11.25,184.774908 L11.25,40.2250923 C11.25,28.6948993 10.5625069,21.1580743 9.1875,17.6143911 C7.81249312,14.070708 4.75002375,11.875773 0,11.0295203 L0,5 L68,5 L68.4375,51.6494465 L65.1875,51.6494465 C64.1041612,37.2631507 62.4791775,27.9545107 60.3125,23.7232472 C58.1458225,19.4919838 53.3125375,17.3763838 45.8125,17.3763838 L28.4375,17.3763838 C26.5624906,17.3763838 25.4062522,18.1432888 24.96875,19.6771218 C24.5312478,21.2109548 24.3125,24.0934598 24.3125,28.3247232 L24.3125,100.837638 L44,100.837638 C49.4583606,100.837638 52.9374925,98.7749284 54.4375,94.6494465 C55.9375075,90.5239646 57.1458287,82.1673446 58.0625,69.5793358 L61.0625,69.5793358 L61.0625,144.789668 L58.0625,144.789668 C57.1041619,132.201659 55.8750075,123.871484 54.375,119.798893 C52.8749925,115.726302 49.4166938,113.690037 44,113.690037 L24.3125,113.690037 L24.3125,194.136531 C24.3125,200.589208 25.1145753,204.397288 26.71875,205.560886 C28.3229247,206.724483 33.12496,207.306273 41.125,207.306273 C49.79171,207.306273 56.1874794,204.899778 60.3125,200.086716 C64.4375206,195.273654 68.1458169,183.611409 71.4375,165.099631 L75,165.099631 L69.1875,220 L0,220 L0,214.129151 Z M78,214.129151 C83.2401408,212.753991 86.6028579,209.712816 88.0882521,205.005535 C89.5736464,200.298254 90.3163324,189.376469 90.3163324,172.239852 L90.3163324,40.2250923 C90.3163324,28.4833361 89.5942766,20.8407311 88.1501433,17.297048 C86.70601,13.7533648 83.4258135,11.6642098 78.3094556,11.0295203 L78.3094556,5 L103.375358,5 L132.711748,168.907749 L160.748424,5 L186,5 L186,11.0295203 C181.296252,11.875773 178.263617,14.070708 176.902006,17.6143911 C175.540394,21.1580743 174.859599,28.6948993 174.859599,40.2250923 L174.859599,184.774908 C174.859599,196.622445 175.540394,204.21216 176.902006,207.54428 C178.263617,210.8764 181.296252,213.071335 186,214.129151 L186,220 L150.474499,220 L150.474499,214.129151 C155.590857,213.071335 158.778217,210.71773 160.036676,207.068266 C161.295135,203.418801 161.924355,194.718396 161.924355,180.96679 L161.924355,34.9889299 L129.49341,220 L127.760458,220 L95.886533,42.6051661 L95.886533,172.239852 C95.886533,190.011159 96.8974111,201.594069 98.9191977,206.98893 C100.239548,210.479722 103.189662,212.859772 107.769628,214.129151 L107.769628,220 L78,220 L78,214.129151 Z M246,137 L231.407643,47 L217,137 L246,137 Z M191,220 L191,214.124003 C194.275399,213.171134 196.731912,209.994951 198.369611,204.595359 C200.007311,199.195767 202.816235,184.532389 206.796466,160.604786 L233.351943,1 L235.839576,1 L267.55689,185.37926 C269.671389,197.660685 271.360889,205.257056 272.625442,208.1686 C273.889995,211.080145 276.014826,213.065259 279,214.124003 L279,220 L246.598587,220 L246.598587,214.124003 C250.330054,213.277008 252.734741,212.244749 253.812721,211.027194 C254.8907,209.809639 255.429682,206.818733 255.429682,202.054387 C255.429682,200.466272 255.222381,197.660644 254.807774,193.637418 C254.393166,189.614193 253.812725,185.379283 253.066431,180.93256 L247.780212,149.646846 L214.445936,149.646846 C211.129076,170.92759 209.149355,183.923472 208.506714,188.63488 C207.864072,193.346289 207.542756,197.078304 207.542756,199.831037 C207.542756,205.336503 208.413419,209.147923 210.15477,211.26541 C211.23275,212.535902 213.264296,213.488757 216.24947,214.124003 L216.24947,220 L191,220 Z M283,214.129151 C288.225549,213.177117 291.611653,211.193742 293.158416,208.178967 C294.705178,205.164192 295.478548,197.362917 295.478548,184.774908 L295.478548,40.2250923 C295.478548,28.271773 294.705178,20.576278 293.158416,17.1383764 C291.611653,13.7004748 288.225549,11.6642098 283,11.0295203 L283,5 L321,5 L321,11.0295203 C315.774451,11.6642098 312.388347,13.7004748 310.841584,17.1383764 C309.294822,20.576278 308.521452,28.271773 308.521452,40.2250923 L308.521452,184.774908 C308.521452,197.362917 309.294822,205.164192 310.841584,208.178967 C312.388347,211.193742 315.774451,213.177117 321,214.129151 L321,220 L283,220 L283,214.129151 Z M325,214.129151 C329.700523,212.859772 332.747497,210.717727 334.141015,207.702952 C335.534533,204.688177 336.231281,197.045572 336.231281,184.774908 L336.231281,40.2250923 C336.231281,28.6948993 335.544932,21.1580743 334.172213,17.6143911 C332.799494,14.070708 329.74212,11.875773 325,11.0295203 L325,5 L361.127288,5 L361.127288,11.0295203 C356.426765,11.6642098 353.275798,13.6211398 351.674293,16.900369 C350.072787,20.1795982 349.272047,27.2139682 349.272047,38.00369 L349.272047,194.136531 C349.272047,197.733105 349.511229,200.56272 349.989601,202.625461 C350.467972,204.688202 351.518295,205.984007 353.140599,206.512915 C354.097343,206.83026 355.106068,207.04182 356.166805,207.147601 C357.227543,207.253383 359.213796,207.306273 362.125624,207.306273 C373.481754,207.306273 381.156386,204.926223 385.14975,200.166052 C389.143115,195.40588 393.011629,183.24118 396.755408,163.671587 L400,163.671587 L393.760399,220 L325,220 L325,214.129151 Z M435,214.312545 C440.28798,212.936179 443.681396,209.892337 445.180351,205.180928 C446.679306,200.46952 447.428772,189.538157 447.428772,172.386512 L447.428772,28.9804206 L445.68,23.7396664 C443.806306,18.1283258 442.213691,14.6609928 440.902105,13.3375635 C439.59052,12.0141341 437.623171,11.2465565 435,11.0348078 L435,5 L456.922105,5 L506.2,161.587382 L506.2,52.8020305 C506.2,34.9092651 505.159075,23.2632612 503.077193,17.8636693 C501.703151,14.3698157 498.663649,12.0935513 493.958596,11.0348078 L493.958596,5 L524,5 L524,11.0348078 C519.128397,12.3053 515.88071,15.3226738 514.256842,20.0870196 C512.632974,24.8513654 511.821053,35.7562599 511.821053,52.8020305 L511.821053,224 L509.635088,224 L453.049825,45.6555475 L453.049825,172.386512 C453.049825,190.173403 454.069931,201.76647 456.110175,207.166062 C457.44258,210.659916 460.419626,213.042053 465.041404,214.312545 L465.041404,220.188542 L435,220.188542 L435,214.312545 Z M527,214.129151 C531.708357,212.859772 534.76041,210.717727 536.15625,207.702952 C537.55209,204.688177 538.25,197.045572 538.25,184.774908 L538.25,40.2250923 C538.25,28.6948993 537.562507,21.1580743 536.1875,17.6143911 C534.812493,14.070708 531.750024,11.875773 527,11.0295203 L527,5 L595,5 L595.4375,51.6494465 L592.1875,51.6494465 C591.104161,37.2631507 589.479177,27.9545107 587.3125,23.7232472 C585.145823,19.4919838 580.312537,17.3763838 572.8125,17.3763838 L555.4375,17.3763838 C553.562491,17.3763838 552.406252,18.1432888 551.96875,19.6771218 C551.531248,21.2109548 551.3125,24.0934598 551.3125,28.3247232 L551.3125,100.837638 L571,100.837638 C576.458361,100.837638 579.937492,98.7749284 581.4375,94.6494465 C582.937508,90.5239646 584.145829,82.1673446 585.0625,69.5793358 L588.0625,69.5793358 L588.0625,144.789668 L585.0625,144.789668 C584.104162,132.201659 582.875008,123.871484 581.375,119.798893 C579.874992,115.726302 576.416694,113.690037 571,113.690037 L551.3125,113.690037 L551.3125,194.136531 C551.3125,200.589208 552.114575,204.397288 553.71875,205.560886 C555.322925,206.724483 560.12496,207.306273 568.125,207.306273 C576.79171,207.306273 583.187479,204.899778 587.3125,200.086716 C591.437521,195.273654 595.145817,183.611409 598.4375,165.099631 L602,165.099631 L596.1875,220 L527,220 L527,214.129151 Z M635.19326,5 L635.19326,11.0348078 C632.666303,11.2465565 630.86432,11.8288567 629.787256,12.7817259 C627.881683,14.5815899 626.92891,17.8636455 626.92891,22.6279913 C626.92891,24.7454783 627.042828,26.8099972 627.270669,28.8216099 C627.498509,30.8332225 627.840265,33.4271052 628.295945,36.6033358 L646.688784,158.8876 L660.23486,67.0949964 L654.207478,27.8687455 C653.088989,20.6692896 651.41128,15.8520789 649.174302,13.4169688 C647.848686,11.9347279 645.839578,11.1406822 643.146919,11.0348078 L643.146919,5 L677.198526,5 L677.198526,11.0348078 C674.008761,11.1406822 671.813241,11.7229824 670.611901,12.7817259 C668.706327,14.5815899 667.753555,18.2871366 667.753555,23.8984772 C667.753555,25.8042155 667.836404,27.4717115 668.002106,28.9010152 C668.167808,30.330319 668.582057,33.2682881 669.244866,37.7150109 L687.637704,159.681653 L703.545024,49.3081943 C704.456385,43.0616076 705.077759,37.5032876 705.409163,32.6330674 C705.61629,29.8803343 705.719853,27.6570063 705.719853,25.9630167 C705.719853,19.9281787 704.60138,15.7462045 702.364402,13.4169688 C701.121637,12.0406023 699.257516,11.2465565 696.771985,11.0348078 L696.771985,5 L722,5 L722,11.0348078 C719.721596,11.8818026 717.981751,13.2052122 716.780411,15.0050761 C714.626284,18.0754323 713.010713,23.3690705 711.933649,30.8861494 L698.387572,127.601885 L693.105845,164.922408 L685.462875,224 L683.536598,224 L678.379147,186.361856 L663.217483,86.311095 L643.644023,224 L641.717746,224 L632.583465,156.346628 L621.647183,80.2762872 C617.131801,48.9374793 613.993865,29.6951046 612.233281,22.5485859 C610.472696,15.4020672 607.728297,11.5641796 604,11.0348078 L604,5 L635.19326,5 Z M730.911957,154.307583 C733.059793,168.912901 735.579333,180.554646 738.470652,189.233168 C743.509808,204.367664 749.767354,211.934798 757.243478,211.934798 C761.291325,211.934798 764.791833,208.653943 767.745109,202.092133 C770.698384,195.530324 772.175,186.375679 772.175,174.627923 C772.175,164.04436 770.688058,154.836798 767.71413,147.004961 C765.772816,142.030686 761.683727,134.569386 755.446739,124.620836 L744.604348,107.316797 C741.341288,102.025015 738.73914,96.6803955 736.797826,91.2827782 C733.20433,81.0167216 731.407609,69.6924786 731.407609,57.3097094 C731.407609,40.9051861 733.534761,27.2525941 737.78913,16.3515237 C742.0435,5.45045341 747.681487,0 754.703261,0 C757.59458,0 761.074436,1.82563731 765.142935,5.47696669 C769.211433,9.12829607 771.53478,10.9539334 772.113043,10.9539334 C773.682617,10.9539334 774.766845,10.001427 775.365761,8.09638554 C775.964677,6.19134412 776.429346,3.49257593 776.759783,0 L779.361957,0 L782.15,69.2161588 L779.11413,69.2161588 C777.048903,48.3665388 773.734262,33.8143574 769.170109,25.5591779 C764.605955,17.3039984 760.093501,13.1764706 755.632609,13.1764706 C752.163026,13.1764706 749.137513,15.7958632 746.555978,21.0347271 C743.974444,26.273591 742.683696,33.5496818 742.683696,42.8632176 C742.683696,51.2242327 743.67499,58.3680308 745.657609,64.2948264 C747.640227,70.3274575 750.71737,76.6245833 754.88913,83.1863926 L766.041304,100.807938 C773.021774,111.814844 777.936942,121.921995 780.786957,131.129695 C783.595666,140.443231 785,151.449972 785,164.150248 C785,181.189785 782.490786,195.424464 777.472283,206.854713 C772.453779,218.284961 766.041343,224 758.234783,224 C754.31085,224 750.211434,222.094987 745.936413,218.284904 C741.661392,214.474821 739.214134,212.569809 738.594565,212.569809 C737.107601,212.569809 736.105981,213.733983 735.589674,216.062367 C735.073367,218.390751 734.73261,220.877851 734.567391,223.523742 L731.779348,223.523742 L728,154.307583 L730.911957,154.307583 Z M795,214.129151 C799.700523,212.859772 802.747497,210.717727 804.141015,207.702952 C805.534533,204.688177 806.231281,197.045572 806.231281,184.774908 L806.231281,40.2250923 C806.231281,28.6948993 805.544932,21.1580743 804.172213,17.6143911 C802.799494,14.070708 799.74212,11.875773 795,11.0295203 L795,5 L831.127288,5 L831.127288,11.0295203 C826.426765,11.6642098 823.275798,13.6211398 821.674293,16.900369 C820.072787,20.1795982 819.272047,27.2139682 819.272047,38.00369 L819.272047,194.136531 C819.272047,197.733105 819.511229,200.56272 819.989601,202.625461 C820.467972,204.688202 821.518295,205.984007 823.140599,206.512915 C824.097343,206.83026 825.106068,207.04182 826.166805,207.147601 C827.227543,207.253383 829.213796,207.306273 832.125624,207.306273 C843.481754,207.306273 851.156386,204.926223 855.14975,200.166052 C859.143115,195.40588 863.011629,183.24118 866.755408,163.671587 L870,163.671587 L863.760399,220 L795,220 L795,214.129151 Z M873,214.129151 C877.708357,212.859772 880.76041,210.717727 882.15625,207.702952 C883.55209,204.688177 884.25,197.045572 884.25,184.774908 L884.25,40.2250923 C884.25,28.6948993 883.562507,21.1580743 882.1875,17.6143911 C880.812493,14.070708 877.750024,11.875773 873,11.0295203 L873,5 L941,5 L941.4375,51.6494465 L938.1875,51.6494465 C937.104161,37.2631507 935.479177,27.9545107 933.3125,23.7232472 C931.145823,19.4919838 926.312537,17.3763838 918.8125,17.3763838 L901.4375,17.3763838 C899.562491,17.3763838 898.406252,18.1432888 897.96875,19.6771218 C897.531248,21.2109548 897.3125,24.0934598 897.3125,28.3247232 L897.3125,100.837638 L917,100.837638 C922.458361,100.837638 925.937492,98.7749284 927.4375,94.6494465 C928.937508,90.5239646 930.145829,82.1673446 931.0625,69.5793358 L934.0625,69.5793358 L934.0625,144.789668 L931.0625,144.789668 C930.104162,132.201659 928.875008,123.871484 927.375,119.798893 C925.874992,115.726302 922.416694,113.690037 917,113.690037 L897.3125,113.690037 L897.3125,194.136531 C897.3125,200.589208 898.114575,204.397288 899.71875,205.560886 C901.322925,206.724483 906.12496,207.306273 914.125,207.306273 C922.79171,207.306273 929.187479,204.899778 933.3125,200.086716 C937.437521,195.273654 941.145817,183.611409 944.4375,165.099631 L948,165.099631 L942.1875,220 L873,220 L873,214.129151 Z M951.742373,5 L1023.31949,5 L1024,60.2177122 L1020.96864,60.2177122 C1019.48389,42.869532 1017.59705,31.577517 1015.30805,26.3413284 C1013.01906,21.1051399 1008.20399,18.4870849 1000.86271,18.4870849 L993.810169,18.4870849 L993.810169,184.774908 C993.810169,197.362917 994.573156,205.164192 996.099153,208.178967 C997.625149,211.193742 1000.96579,213.177117 1006.12119,214.129151 L1006.12119,220 L969.188136,220 L969.188136,214.129151 C974.549744,213.071335 977.890389,210.797065 979.210169,207.306273 C980.52995,203.815481 981.189831,195.035741 981.189831,180.96679 L981.189831,18.4870849 L974.137288,18.4870849 C967.125954,18.4870849 962.352131,21.0786949 959.815678,26.2619926 C957.279225,31.4452904 955.371758,42.7637504 954.09322,60.2177122 L951,60.2177122 L951.742373,5 Z M1029.74237,5 L1101.31949,5 L1102,60.2177122 L1098.96864,60.2177122 C1097.48389,42.869532 1095.59705,31.577517 1093.30805,26.3413284 C1091.01906,21.1051399 1086.20399,18.4870849 1078.86271,18.4870849 L1071.81017,18.4870849 L1071.81017,184.774908 C1071.81017,197.362917 1072.57316,205.164192 1074.09915,208.178967 C1075.62515,211.193742 1078.96579,213.177117 1084.12119,214.129151 L1084.12119,220 L1047.18814,220 L1047.18814,214.129151 C1052.54974,213.071335 1055.89039,210.797065 1057.21017,207.306273 C1058.52995,203.815481 1059.18983,195.035741 1059.18983,180.96679 L1059.18983,18.4870849 L1052.13729,18.4870849 C1045.12595,18.4870849 1040.35213,21.0786949 1037.81568,26.2619926 C1035.27922,31.4452904 1033.37176,42.7637504 1032.09322,60.2177122 L1029,60.2177122 L1029.74237,5 Z M1106,214.129151 C1110.70836,212.859772 1113.76041,210.717727 1115.15625,207.702952 C1116.55209,204.688177 1117.25,197.045572 1117.25,184.774908 L1117.25,40.2250923 C1117.25,28.6948993 1116.56251,21.1580743 1115.1875,17.6143911 C1113.81249,14.070708 1110.75002,11.875773 1106,11.0295203 L1106,5 L1174,5 L1174.4375,51.6494465 L1171.1875,51.6494465 C1170.10416,37.2631507 1168.47918,27.9545107 1166.3125,23.7232472 C1164.14582,19.4919838 1159.31254,17.3763838 1151.8125,17.3763838 L1134.4375,17.3763838 C1132.56249,17.3763838 1131.40625,18.1432888 1130.96875,19.6771218 C1130.53125,21.2109548 1130.3125,24.0934598 1130.3125,28.3247232 L1130.3125,100.837638 L1150,100.837638 C1155.45836,100.837638 1158.93749,98.7749284 1160.4375,94.6494465 C1161.93751,90.5239646 1163.14583,82.1673446 1164.0625,69.5793358 L1167.0625,69.5793358 L1167.0625,144.789668 L1164.0625,144.789668 C1163.10416,132.201659 1161.87501,123.871484 1160.375,119.798893 C1158.87499,115.726302 1155.41669,113.690037 1150,113.690037 L1130.3125,113.690037 L1130.3125,194.136531 C1130.3125,200.589208 1131.11458,204.397288 1132.71875,205.560886 C1134.32292,206.724483 1139.12496,207.306273 1147.125,207.306273 C1155.79171,207.306273 1162.18748,204.899778 1166.3125,200.086716 C1170.43752,195.273654 1174.14582,183.611409 1177.4375,165.099631 L1181,165.099631 L1175.1875,220 L1106,220 L1106,214.129151 Z M1227.79123,100.732639 C1234.59711,93.6758906 1238,80.40519 1238,60.9201389 C1238,42.17236 1234.95201,29.3756129 1228.85595,22.5295139 C1225.59915,18.8431529 1221.27769,17 1215.89144,17 C1212.25885,17 1210.03549,17.6582689 1209.22129,18.9748264 C1208.40709,20.2913839 1208,23.3720823 1208,28.2170139 L1208,108 C1217.2276,107.157403 1223.82461,104.734974 1227.79123,100.732639 Z M1184,214.129151 C1188.90175,212.965554 1191.95491,210.532614 1193.15957,206.830258 C1194.36424,203.127903 1194.96657,194.506833 1194.96657,180.96679 L1194.96657,40.2250923 C1194.96657,28.8006809 1194.29155,21.3167459 1192.94149,17.7730627 C1191.59143,14.2293796 1188.61097,11.9815546 1184,11.0295203 L1184,5 L1219.32979,5 C1226.68241,5 1232.8095,7.38005 1237.71125,12.1402214 C1247.01626,21.1316563 1251.66869,37.6862263 1251.66869,61.804428 C1251.66869,77.9890108 1249.6021,90.4181608 1245.46884,99.0922509 C1241.33559,107.766341 1235.71736,113.478461 1228.61398,116.228782 L1254.90881,198.579336 C1256.52888,203.656852 1258.14893,207.359152 1259.769,209.686347 C1261.38907,212.013542 1263.46605,213.494462 1266,214.129151 L1266,220 L1245.43769,220 L1215.0304,120.0369 L1207.92705,120.830258 L1207.92705,184.774908 C1207.92705,196.834009 1208.64361,204.476614 1210.07675,207.702952 C1211.50989,210.92929 1214.63574,213.071335 1219.45441,214.129151 L1219.45441,220 L1184,220 L1184,214.129151 Z" id="EMAIL-NEWSLETTER" fill="#FFFFFF"></path>
    </g>
</svg>